<svg xmlns="http://www.w3.org/2000/svg" xmlns:xlink="http://www.w3.org/1999/xlink" width="200" zoomAndPan="magnify" viewBox="0 0 150 74.999997" height="100" preserveAspectRatio="xMidYMid meet" version="1.0"><defs><g/><clipPath id="700fca1d2d"><path d="M 116.628906 22.410156 L 146.628906 22.410156 L 146.628906 52.410156 L 116.628906 52.410156 Z M 116.628906 22.410156 " clip-rule="nonzero"/></clipPath><clipPath id="a347f73bd9"><path d="M 116.628906 35 L 122 35 L 122 48 L 116.628906 48 Z M 116.628906 35 " clip-rule="nonzero"/></clipPath><clipPath id="873ea2f722"><path d="M 126 22.410156 L 132 22.410156 L 132 25 L 126 25 Z M 126 22.410156 " clip-rule="nonzero"/></clipPath><clipPath id="c60a65ccb3"><path d="M 122 23 L 146.628906 23 L 146.628906 52.410156 L 122 52.410156 Z M 122 23 " clip-rule="nonzero"/></clipPath><clipPath id="20a722f8a8"><path d="M 116.628906 22.410156 L 146.628906 22.410156 L 146.628906 52.410156 L 116.628906 52.410156 Z M 116.628906 22.410156 " clip-rule="nonzero"/></clipPath></defs><g clip-path="url(#700fca1d2d)"><path fill="#3baed9" d="M 146.628906 37.410156 C 146.628906 45.691406 139.914062 52.410156 131.628906 52.410156 C 123.347656 52.410156 116.628906 45.691406 116.628906 37.410156 C 116.628906 29.125 123.347656 22.410156 131.628906 22.410156 C 139.914062 22.410156 146.628906 29.125 146.628906 37.410156 Z M 146.628906 37.410156 " fill-opacity="1" fill-rule="nonzero"/></g><path fill="#b0e269" d="M 133.4375 31.519531 C 133.457031 31.523438 133.46875 31.507812 133.488281 31.507812 C 133.539062 31.507812 133.699219 31.617188 133.753906 31.636719 C 133.769531 31.648438 133.789062 31.648438 133.804688 31.660156 C 133.835938 31.679688 133.859375 31.710938 133.894531 31.726562 C 133.902344 31.730469 133.921875 31.738281 133.949219 31.734375 C 133.96875 31.730469 133.996094 31.726562 134.023438 31.628906 C 134.039062 31.589844 133.992188 31.570312 133.996094 31.53125 C 134.003906 31.476562 134.046875 31.4375 134.054688 31.382812 C 134.0625 31.359375 134.054688 31.347656 134.03125 31.34375 C 134.027344 31.34375 134.023438 31.34375 134.023438 31.34375 C 134.007812 31.347656 133.996094 31.355469 133.984375 31.359375 C 133.933594 31.363281 133.9375 31.339844 133.898438 31.367188 C 133.878906 31.378906 133.859375 31.390625 133.835938 31.398438 C 133.8125 31.402344 133.792969 31.390625 133.769531 31.390625 C 133.738281 31.394531 133.714844 31.425781 133.683594 31.425781 C 133.640625 31.425781 133.613281 31.386719 133.570312 31.378906 C 133.542969 31.375 133.527344 31.402344 133.503906 31.402344 C 133.476562 31.398438 133.484375 31.390625 133.464844 31.382812 C 133.433594 31.371094 133.394531 31.488281 133.402344 31.5 C 133.410156 31.519531 133.425781 31.519531 133.4375 31.519531 Z M 133.4375 31.519531 " fill-opacity="1" fill-rule="nonzero"/><path fill="#b0e269" d="M 130.082031 26.761719 C 130.078125 26.765625 130.074219 26.769531 130.070312 26.773438 C 130.066406 26.785156 130.066406 26.796875 130.078125 26.800781 C 130.085938 26.808594 130.097656 26.804688 130.105469 26.796875 C 130.117188 26.789062 130.128906 26.773438 130.140625 26.757812 C 130.15625 26.742188 130.160156 26.734375 130.179688 26.726562 C 130.195312 26.71875 130.210938 26.710938 130.226562 26.707031 C 130.234375 26.703125 130.242188 26.707031 130.246094 26.710938 C 130.253906 26.714844 130.253906 26.722656 130.253906 26.726562 C 130.253906 26.765625 130.265625 26.804688 130.226562 26.832031 C 130.207031 26.851562 130.191406 26.863281 130.175781 26.875 C 130.164062 26.886719 130.160156 26.90625 130.167969 26.921875 C 130.175781 26.933594 130.191406 26.941406 130.210938 26.9375 C 130.210938 26.9375 130.214844 26.941406 130.214844 26.945312 C 130.222656 26.988281 130.226562 26.988281 130.285156 26.953125 C 130.285156 26.953125 130.289062 26.953125 130.289062 26.953125 C 130.289062 26.953125 130.292969 26.953125 130.292969 26.953125 C 130.300781 26.96875 130.316406 26.980469 130.328125 26.988281 C 130.351562 27 130.367188 27.019531 130.375 27.042969 C 130.375 27.046875 130.375 27.046875 130.375 27.050781 C 130.375 27.050781 130.375 27.050781 130.375 27.054688 C 130.394531 27.113281 130.378906 27.179688 130.332031 27.226562 C 130.289062 27.273438 130.222656 27.285156 130.160156 27.265625 C 130.148438 27.265625 130.140625 27.265625 130.132812 27.277344 C 130.125 27.285156 130.125 27.296875 130.132812 27.304688 C 130.140625 27.3125 130.148438 27.320312 130.148438 27.328125 C 130.144531 27.367188 130.097656 27.351562 130.082031 27.378906 C 130.082031 27.382812 130.082031 27.382812 130.082031 27.386719 C 130.082031 27.390625 130.082031 27.394531 130.085938 27.398438 C 130.089844 27.402344 130.09375 27.402344 130.097656 27.402344 C 130.121094 27.398438 130.140625 27.378906 130.160156 27.378906 C 130.203125 27.375 130.171875 27.484375 130.160156 27.5 C 130.140625 27.519531 130.03125 27.554688 129.996094 27.5625 C 129.976562 27.566406 129.960938 27.570312 129.953125 27.574219 C 129.945312 27.582031 129.941406 27.628906 129.972656 27.644531 C 130.019531 27.667969 130.0625 27.625 130.109375 27.636719 C 130.15625 27.648438 130.195312 27.671875 130.226562 27.707031 C 130.230469 27.710938 130.230469 27.710938 130.234375 27.714844 C 130.25 27.71875 130.265625 27.71875 130.28125 27.710938 C 130.285156 27.710938 130.289062 27.710938 130.292969 27.707031 C 130.304688 27.695312 130.316406 27.691406 130.332031 27.691406 C 130.339844 27.691406 130.351562 27.699219 130.355469 27.707031 C 130.359375 27.714844 130.355469 27.726562 130.347656 27.734375 C 130.3125 27.757812 130.277344 27.78125 130.230469 27.777344 C 130.203125 27.773438 130.179688 27.773438 130.152344 27.777344 C 130.074219 27.785156 130 27.820312 129.945312 27.878906 C 129.925781 27.894531 129.90625 27.914062 129.886719 27.933594 C 129.875 27.945312 129.875 27.960938 129.882812 27.96875 C 129.894531 27.984375 129.90625 27.984375 129.921875 27.976562 C 129.929688 27.972656 129.9375 27.964844 129.949219 27.960938 C 129.980469 27.9375 130.042969 27.914062 130.078125 27.980469 C 130.082031 27.980469 130.089844 27.980469 130.09375 27.976562 C 130.136719 27.945312 130.160156 27.878906 130.226562 27.875 C 130.273438 27.871094 130.308594 27.914062 130.359375 27.90625 C 130.410156 27.894531 130.457031 27.851562 130.515625 27.855469 C 130.539062 27.859375 130.597656 27.875 130.601562 27.878906 C 130.617188 27.886719 130.617188 27.886719 130.707031 27.886719 C 130.742188 27.886719 130.769531 27.921875 130.804688 27.925781 C 130.847656 27.933594 130.886719 27.90625 130.929688 27.910156 C 130.933594 27.910156 131.054688 27.886719 131.054688 27.832031 L 131.050781 27.832031 C 131.007812 27.804688 130.976562 27.757812 130.972656 27.707031 C 130.972656 27.703125 130.972656 27.699219 130.976562 27.699219 C 130.980469 27.699219 130.988281 27.699219 130.988281 27.699219 C 130.992188 27.703125 130.992188 27.703125 130.996094 27.707031 C 131.011719 27.714844 131.019531 27.714844 131.023438 27.714844 C 131.054688 27.691406 131.085938 27.671875 131.117188 27.65625 C 131.136719 27.644531 131.144531 27.625 131.15625 27.585938 C 131.160156 27.574219 131.171875 27.511719 131.09375 27.472656 L 131.09375 27.46875 C 131.085938 27.46875 130.945312 27.394531 130.90625 27.417969 C 130.875 27.429688 130.875 27.429688 130.828125 27.40625 C 130.828125 27.398438 130.828125 27.390625 130.835938 27.386719 C 130.890625 27.34375 130.890625 27.339844 130.890625 27.328125 C 130.886719 27.304688 130.875 27.285156 130.859375 27.265625 C 130.84375 27.25 130.84375 27.226562 130.855469 27.210938 C 130.863281 27.195312 130.808594 27.074219 130.808594 27.074219 C 130.804688 27.070312 130.800781 27.066406 130.796875 27.066406 C 130.773438 27.070312 130.746094 27.070312 130.722656 27.070312 C 130.71875 27.070312 130.714844 27.070312 130.710938 27.070312 C 130.707031 27.066406 130.707031 27.066406 130.707031 27.0625 C 130.714844 27.035156 130.6875 27.015625 130.683594 26.988281 C 130.683594 26.960938 130.6875 26.933594 130.691406 26.90625 C 130.695312 26.882812 130.691406 26.851562 130.683594 26.828125 C 130.65625 26.730469 130.660156 26.628906 130.695312 26.535156 C 130.710938 26.496094 130.726562 26.457031 130.753906 26.425781 C 130.808594 26.347656 130.558594 26.359375 130.511719 26.359375 C 130.507812 26.359375 130.503906 26.359375 130.5 26.355469 C 130.5 26.351562 130.5 26.347656 130.5 26.34375 C 130.515625 26.328125 130.515625 26.300781 130.53125 26.285156 C 130.554688 26.265625 130.585938 26.257812 130.613281 26.242188 C 130.671875 26.207031 130.625 26.1875 130.601562 26.179688 C 130.550781 26.167969 130.5 26.160156 130.445312 26.160156 C 130.425781 26.160156 130.40625 26.160156 130.386719 26.167969 C 130.375 26.175781 130.355469 26.191406 130.34375 26.210938 C 130.3125 26.257812 130.273438 26.292969 130.230469 26.328125 C 130.230469 26.328125 130.226562 26.332031 130.226562 26.335938 C 130.214844 26.339844 130.199219 26.34375 130.183594 26.335938 C 130.179688 26.332031 130.167969 26.332031 130.160156 26.335938 C 130.160156 26.339844 130.15625 26.339844 130.15625 26.339844 C 130.140625 26.347656 130.128906 26.359375 130.121094 26.371094 C 130.113281 26.386719 130.117188 26.410156 130.128906 26.421875 C 130.140625 26.433594 130.160156 26.4375 130.175781 26.429688 L 130.179688 26.429688 C 130.179688 26.433594 130.179688 26.441406 130.175781 26.445312 C 130.167969 26.464844 130.164062 26.488281 130.15625 26.511719 C 130.15625 26.511719 130.15625 26.511719 130.152344 26.511719 C 130.148438 26.515625 130.144531 26.511719 130.140625 26.511719 C 130.128906 26.496094 130.125 26.496094 130.117188 26.496094 C 130.085938 26.5 130.066406 26.570312 130.066406 26.59375 C 130.066406 26.601562 130.066406 26.605469 130.074219 26.605469 C 130.109375 26.648438 130.113281 26.710938 130.082031 26.761719 Z M 130.082031 26.761719 " fill-opacity="1" fill-rule="nonzero"/><path fill="#b0e269" d="M 129.351562 27.585938 C 129.417969 27.554688 129.476562 27.519531 129.542969 27.5 L 129.546875 27.5 C 129.640625 27.472656 129.722656 27.5 129.75 27.464844 C 129.777344 27.425781 129.824219 27.363281 129.847656 27.3125 C 129.855469 27.289062 129.828125 27.253906 129.863281 27.234375 C 129.902344 27.210938 129.867188 27.171875 129.875 27.144531 C 129.902344 27.070312 129.921875 27.066406 129.949219 27.0625 C 129.980469 27.058594 130.007812 27.054688 130.019531 27.039062 C 130.066406 26.964844 129.894531 26.761719 129.789062 26.789062 C 129.679688 26.816406 129.589844 26.980469 129.550781 26.976562 C 129.503906 26.976562 129.480469 26.972656 129.449219 27 C 129.425781 27.015625 129.421875 27.046875 129.40625 27.070312 C 129.382812 27.097656 129.355469 27.117188 129.332031 27.144531 C 129.316406 27.167969 129.308594 27.1875 129.335938 27.210938 C 129.355469 27.226562 129.363281 27.234375 129.308594 27.308594 C 129.265625 27.363281 129.1875 27.398438 129.15625 27.46875 C 129.144531 27.496094 129.148438 27.550781 129.148438 27.570312 C 129.164062 27.644531 129.28125 27.613281 129.351562 27.585938 Z M 129.351562 27.585938 " fill-opacity="1" fill-rule="nonzero"/><path fill="#b0e269" d="M 121.421875 26.421875 C 121.535156 26.421875 121.710938 26.453125 121.769531 26.402344 C 121.832031 26.351562 121.753906 26.335938 121.789062 26.28125 C 121.824219 26.230469 121.855469 26.175781 121.878906 26.117188 C 121.898438 26.070312 121.957031 26.054688 122.003906 26.027344 C 122.078125 25.980469 122.003906 25.980469 121.992188 25.957031 C 121.988281 25.949219 121.984375 25.933594 121.988281 25.917969 C 121.792969 26.082031 121.605469 26.25 121.421875 26.421875 Z M 121.421875 26.421875 " fill-opacity="1" fill-rule="nonzero"/><g clip-path="url(#a347f73bd9)"><path fill="#b0e269" d="M 120.636719 46.382812 C 120.648438 46.359375 120.746094 46.347656 120.863281 46.429688 C 120.957031 46.496094 121.09375 46.339844 121.082031 46.285156 C 121.042969 46.113281 121.042969 46.085938 121.0625 45.929688 C 121.101562 45.660156 121.027344 44.992188 120.996094 44.902344 C 120.976562 44.855469 120.964844 44.804688 120.957031 44.753906 C 120.953125 44.699219 120.949219 44.652344 120.953125 44.601562 C 121 45.195312 121 43.972656 121.269531 43.75 C 121.300781 43.703125 121.328125 43.65625 121.355469 43.609375 C 121.5 43.363281 121.636719 43.121094 121.625 43.039062 C 121.578125 42.675781 120.414062 41.339844 120.082031 41.09375 C 119.824219 40.898438 119.585938 40.570312 119.464844 40.460938 C 119.417969 40.421875 119.382812 40.367188 119.351562 40.308594 C 119.304688 40.234375 119.222656 40.1875 119.136719 40.1875 C 119.050781 40.1875 118.671875 39.660156 118.808594 39.410156 C 118.824219 39.066406 118.15625 37.976562 117.5625 37.308594 C 117.542969 37.285156 117.058594 35.867188 117.066406 35.855469 C 117.121094 35.792969 117.085938 35.488281 117.082031 35.425781 C 117.074219 35.300781 116.960938 35.199219 116.9375 35.214844 C 116.910156 35.234375 116.828125 35.203125 116.796875 35.171875 C 116.6875 35.902344 116.628906 36.648438 116.628906 37.410156 C 116.628906 41.101562 117.964844 44.480469 120.179688 47.09375 C 120.277344 46.90625 120.519531 46.582031 120.636719 46.382812 Z M 120.636719 46.382812 " fill-opacity="1" fill-rule="nonzero"/></g><path fill="#b0e269" d="M 122.761719 25.757812 C 122.8125 25.769531 122.859375 25.785156 122.914062 25.765625 C 123.183594 25.664062 123.261719 25.75 123.488281 25.648438 C 123.78125 25.519531 123.796875 24.867188 124.195312 24.507812 C 124.234375 24.472656 124.277344 24.441406 124.320312 24.414062 C 124.394531 24.367188 124.445312 24.296875 124.492188 24.230469 C 124.5 24.21875 124.511719 24.207031 124.519531 24.199219 C 123.808594 24.582031 123.132812 25.019531 122.5 25.507812 C 122.574219 25.535156 122.636719 25.59375 122.671875 25.671875 C 122.6875 25.714844 122.722656 25.746094 122.761719 25.757812 Z M 122.761719 25.757812 " fill-opacity="1" fill-rule="nonzero"/><path fill="#b0e269" d="M 122.171875 25.902344 C 122.21875 25.890625 122.234375 25.875 122.246094 25.847656 C 122.257812 25.828125 122.273438 25.8125 122.296875 25.804688 C 122.324219 25.742188 122.316406 25.699219 122.292969 25.671875 C 122.207031 25.738281 122.125 25.804688 122.042969 25.875 C 122.078125 25.902344 122.125 25.910156 122.171875 25.902344 Z M 122.171875 25.902344 " fill-opacity="1" fill-rule="nonzero"/><g clip-path="url(#873ea2f722)"><path fill="#b0e269" d="M 127.503906 23.085938 L 127.5 23.085938 C 127.300781 23.09375 126.945312 23.308594 126.878906 23.339844 C 126.746094 23.40625 126.625 23.519531 126.546875 23.605469 C 126.503906 23.648438 126.574219 23.664062 126.628906 23.683594 C 126.628906 23.683594 126.199219 23.988281 126.140625 24.070312 C 126.128906 24.085938 126.128906 24.109375 126.140625 24.125 C 126.039062 24.226562 126.089844 24.4375 126.097656 24.457031 C 126.117188 24.492188 126.078125 24.558594 126.085938 24.558594 C 126.105469 24.5625 126.023438 24.644531 126.011719 24.660156 C 125.992188 24.6875 126.019531 24.761719 126.0625 24.761719 C 126.105469 24.757812 126.128906 24.730469 126.171875 24.683594 C 126.171875 24.683594 126.28125 24.625 126.355469 24.5625 C 126.425781 24.503906 126.570312 24.488281 126.625 24.386719 C 126.652344 24.332031 126.789062 24.289062 126.796875 24.308594 C 126.800781 24.335938 127.136719 24.1875 127.125 24.128906 C 127.117188 24.074219 127.148438 24.070312 127.183594 24.082031 C 127.207031 24.09375 127.226562 24.085938 127.242188 24.074219 C 127.34375 23.988281 127.496094 23.886719 127.625 23.917969 C 127.65625 23.925781 127.6875 23.921875 127.714844 23.90625 C 127.84375 23.832031 127.699219 23.925781 127.71875 23.957031 C 127.722656 23.964844 127.734375 23.96875 127.742188 23.964844 C 127.796875 23.941406 127.851562 23.933594 127.910156 23.929688 C 127.992188 23.929688 128.230469 23.851562 128.234375 23.851562 C 128.492188 23.71875 128.597656 23.636719 128.648438 23.671875 C 128.667969 23.683594 128.675781 23.703125 128.671875 23.722656 C 128.671875 23.722656 128.675781 23.722656 128.675781 23.722656 C 128.714844 23.753906 128.761719 23.722656 128.8125 23.710938 C 128.8125 23.710938 128.851562 23.753906 129.003906 23.75 C 128.96875 23.84375 130.574219 23.496094 131.589844 22.652344 C 131.691406 22.570312 131.796875 22.488281 131.902344 22.414062 C 131.8125 22.410156 131.722656 22.410156 131.628906 22.410156 C 130.371094 22.410156 129.152344 22.5625 127.984375 22.855469 C 127.839844 22.945312 127.613281 23.078125 127.503906 23.085938 Z M 127.503906 23.085938 " fill-opacity="1" fill-rule="nonzero"/></g><path fill="#b0e269" d="M 137.378906 23.550781 C 137.308594 23.539062 137.238281 23.558594 137.1875 23.601562 C 137.132812 23.648438 136.960938 23.722656 136.9375 23.742188 C 136.914062 23.734375 136.890625 23.734375 136.863281 23.746094 C 136.761719 23.785156 136.703125 23.976562 136.726562 24.042969 C 136.734375 24.074219 136.648438 24.167969 136.613281 24.15625 C 136.589844 24.148438 136.53125 24.199219 136.5625 24.21875 C 136.59375 24.246094 136.476562 24.304688 136.453125 24.296875 C 136.328125 24.261719 136.257812 24.414062 136.226562 24.449219 C 136.207031 24.472656 135.925781 24.742188 136.082031 24.742188 C 136.125 24.742188 136.089844 24.851562 135.976562 24.8125 C 135.878906 24.777344 135.785156 24.726562 135.707031 24.660156 C 135.65625 24.621094 135.980469 24.324219 135.988281 24.230469 C 136 24.136719 135.367188 24.011719 135.15625 23.914062 C 134.976562 23.832031 134.824219 23.847656 134.777344 23.785156 C 134.761719 23.761719 134.75 23.726562 134.757812 23.691406 C 134.660156 23.671875 134.597656 23.660156 134.554688 23.65625 C 134.511719 23.644531 134.390625 23.640625 134.222656 23.695312 C 133.863281 23.808594 133.519531 24.148438 133.519531 24.148438 C 133.519531 24.148438 133.449219 24.265625 133.382812 24.339844 C 133.320312 24.410156 133.277344 24.492188 133.207031 24.558594 C 133.179688 24.582031 133.160156 24.617188 133.15625 24.652344 C 133.117188 24.660156 133.089844 24.691406 133.082031 24.726562 C 133.039062 24.882812 132.914062 25.117188 132.25 25.394531 C 132.054688 25.476562 131.933594 25.671875 131.945312 25.882812 C 131.949219 25.957031 131.964844 26.019531 131.996094 26.082031 C 132.023438 26.820312 132.023438 26.820312 133.027344 26.355469 C 133.074219 26.421875 133.128906 26.507812 133.167969 26.59375 C 133.203125 26.675781 133.234375 26.753906 133.234375 26.808594 C 133.292969 26.867188 133.726562 26.839844 133.816406 26.671875 C 133.890625 26.527344 133.777344 26.378906 133.832031 26.234375 C 133.832031 26.234375 133.835938 26.234375 133.832031 26.230469 C 133.902344 26.0625 133.921875 25.878906 133.882812 25.699219 C 133.871094 25.613281 134.128906 25.105469 134.175781 25.035156 C 134.253906 24.914062 134.582031 24.667969 134.605469 24.765625 C 134.613281 24.800781 134.605469 24.839844 134.582031 24.863281 C 134.527344 24.933594 134.503906 25.03125 134.457031 25.105469 C 134.359375 25.253906 134.335938 25.4375 134.398438 25.605469 C 134.453125 25.753906 134.753906 25.886719 134.789062 25.863281 C 134.792969 25.863281 134.792969 25.863281 134.792969 25.863281 C 134.792969 25.863281 135.328125 25.726562 135.496094 25.761719 C 135.511719 25.765625 135.523438 25.777344 135.53125 25.796875 C 135.535156 25.808594 135.527344 25.828125 135.515625 25.839844 C 135.3125 26.019531 135.273438 25.898438 135.058594 25.9375 C 134.984375 25.949219 134.925781 26.011719 134.917969 26.085938 C 134.910156 26.152344 134.941406 26.21875 135 26.253906 C 135.007812 26.257812 135.015625 26.273438 135.011719 26.285156 C 135.011719 26.285156 134.96875 26.40625 134.910156 26.433594 C 134.863281 26.453125 134.8125 26.453125 134.769531 26.433594 C 134.734375 26.414062 134.699219 26.421875 134.667969 26.4375 C 134.605469 26.480469 134.601562 26.738281 134.628906 26.820312 C 134.675781 26.957031 134.421875 27.203125 134.320312 27.183594 C 134.113281 27.148438 133.898438 27.179688 133.710938 27.277344 C 133.625 27.328125 133.515625 27.308594 133.441406 27.242188 C 133.390625 27.199219 133.4375 27.179688 133.378906 27.140625 C 133.367188 27.128906 133.039062 27.265625 133.023438 27.273438 C 133.011719 27.277344 132.957031 27.246094 132.957031 27.230469 C 132.957031 27.226562 132.957031 27.226562 132.957031 27.226562 C 132.949219 27.164062 132.761719 27.148438 132.730469 27.039062 C 132.71875 26.988281 132.746094 26.914062 132.832031 26.8125 C 132.628906 26.828125 132.214844 26.839844 132.605469 26.878906 C 132.589844 26.957031 132.585938 27.039062 132.601562 27.121094 C 132.621094 27.394531 132.304688 27.363281 132.277344 27.394531 C 132.238281 27.394531 132.179688 27.394531 132.085938 27.402344 C 132.042969 27.40625 132.007812 27.429688 131.984375 27.460938 C 131.980469 27.464844 131.980469 27.46875 131.980469 27.476562 C 131.980469 27.496094 131.96875 27.519531 131.945312 27.523438 C 131.871094 27.542969 131.800781 27.578125 131.746094 27.628906 C 131.617188 27.746094 131.550781 27.796875 131.414062 27.871094 C 131.316406 27.925781 131.230469 27.996094 131.160156 28.078125 C 131.128906 28.113281 131.066406 28.148438 130.914062 28.234375 C 130.902344 28.242188 130.890625 28.257812 130.886719 28.273438 C 130.878906 28.304688 130.851562 28.332031 130.820312 28.335938 C 130.683594 28.355469 130.644531 28.320312 130.566406 28.273438 C 130.527344 28.246094 130.496094 28.300781 130.507812 28.332031 C 130.507812 28.335938 130.507812 28.335938 130.507812 28.335938 C 130.519531 28.371094 130.511719 28.40625 130.488281 28.4375 C 130.46875 28.464844 130.4375 28.480469 130.402344 28.484375 C 130.308594 28.488281 130.214844 28.46875 130.132812 28.425781 C 130.125 28.421875 130.117188 28.421875 130.109375 28.425781 C 129.972656 28.46875 129.894531 28.628906 129.925781 28.632812 C 130.160156 28.660156 130.15625 28.699219 130.25 28.761719 C 130.277344 28.777344 130.296875 28.804688 130.308594 28.835938 C 130.320312 28.867188 130.332031 28.898438 130.339844 28.933594 C 130.796875 29.273438 129.574219 29.273438 129.359375 29.734375 C 129.332031 29.71875 129.304688 29.707031 129.277344 29.695312 C 128.347656 29.273438 128.351562 29.320312 128.417969 31.007812 C 128.414062 31.035156 128.5 31.378906 128.535156 31.398438 C 128.558594 31.414062 128.640625 31.378906 128.691406 31.355469 C 128.726562 31.339844 128.75 31.332031 128.832031 31.425781 C 128.90625 31.507812 128.847656 31.707031 129.003906 31.710938 C 129.046875 31.710938 129.070312 31.667969 129.082031 31.644531 C 129.09375 31.617188 129.09375 31.617188 129.398438 31.550781 C 129.53125 31.519531 129.664062 31.605469 129.796875 31.5625 C 129.902344 31.53125 129.90625 31.394531 130.011719 31.367188 C 130.082031 31.347656 130.15625 31.382812 130.226562 31.351562 C 130.261719 31.328125 130.230469 31.21875 130.269531 31.179688 C 130.332031 31.125 130.355469 31.039062 130.332031 30.960938 C 130.320312 30.925781 130.320312 30.914062 130.328125 30.882812 C 130.335938 30.851562 130.949219 30.425781 131.15625 30.304688 C 131.34375 30.199219 131.214844 29.914062 131.433594 29.828125 C 131.632812 29.746094 132.488281 29.628906 132.542969 29.625 C 132.605469 29.621094 132.660156 29.636719 132.703125 29.65625 C 132.773438 29.691406 132.832031 29.742188 132.875 29.808594 C 133.074219 30.125 133.757812 30.613281 133.816406 30.648438 C 133.871094 30.691406 133.933594 30.734375 134.179688 31.03125 C 134.199219 31.074219 134.199219 31.117188 134.160156 31.128906 C 134.105469 31.15625 134.105469 31.167969 134.105469 31.1875 C 134.109375 31.230469 134.074219 31.269531 134.097656 31.3125 C 134.105469 31.324219 134.132812 31.363281 134.191406 31.335938 C 134.261719 31.296875 134.234375 31.285156 134.261719 31.230469 C 134.332031 31.09375 134.328125 31.085938 134.328125 31.085938 C 134.351562 31.070312 134.394531 31.085938 133.984375 30.292969 C 133.925781 30.289062 133.871094 30.277344 133.820312 30.253906 C 133.773438 30.226562 133.730469 30.1875 133.695312 30.140625 L 133.300781 29.566406 C 133.285156 29.542969 133.269531 29.519531 133.253906 29.492188 C 133.230469 29.445312 133.253906 29.390625 133.300781 29.371094 C 133.304688 29.371094 133.304688 29.367188 133.308594 29.367188 C 133.382812 29.34375 133.46875 29.375 133.511719 29.441406 C 133.53125 29.476562 133.554688 29.511719 133.59375 29.507812 C 133.644531 29.507812 133.6875 29.519531 133.730469 29.546875 C 133.730469 29.546875 133.894531 29.671875 134.066406 29.796875 C 134.148438 29.859375 134.234375 29.917969 134.972656 30.765625 C 134.988281 30.78125 135.015625 30.796875 135.027344 30.808594 C 135.042969 30.828125 135.046875 30.832031 135.078125 30.882812 C 135.089844 30.90625 135.175781 30.984375 135.175781 30.984375 C 135.179688 30.988281 135.191406 30.992188 135.203125 30.992188 C 135.230469 30.992188 135.253906 30.980469 135.277344 30.984375 C 135.347656 30.988281 135.457031 31.082031 135.542969 31.039062 C 135.550781 31.035156 135.640625 30.984375 135.640625 30.984375 L 135.640625 30.980469 C 135.847656 30.890625 135.59375 30.792969 135.585938 30.699219 C 135.582031 30.667969 135.59375 30.640625 135.617188 30.625 C 135.636719 30.613281 135.664062 30.609375 135.691406 30.621094 C 135.707031 30.628906 135.726562 30.625 135.738281 30.617188 C 135.753906 30.605469 135.765625 30.585938 135.773438 30.566406 C 135.792969 30.457031 135.902344 30.425781 136.011719 30.425781 C 136.105469 30.425781 136.191406 30.449219 136.273438 30.496094 C 136.304688 30.515625 136.339844 30.519531 136.378906 30.519531 C 136.414062 30.519531 136.449219 30.511719 136.484375 30.5 C 136.515625 30.488281 136.542969 30.46875 136.550781 30.476562 C 136.535156 30.488281 136.515625 30.5 136.492188 30.515625 C 136.46875 30.527344 136.441406 30.542969 136.40625 30.554688 L 136.402344 30.554688 C 136.347656 30.578125 136.316406 30.636719 136.328125 30.695312 C 136.355469 30.8125 136.601562 30.929688 136.441406 31.082031 C 136.441406 31.082031 136.4375 31.085938 136.4375 31.085938 C 136.527344 31.125 136.601562 31.1875 136.648438 31.269531 C 136.691406 31.339844 136.753906 31.394531 136.828125 31.4375 C 136.867188 31.464844 136.910156 31.480469 136.949219 31.496094 C 136.921875 31.722656 138.148438 31.722656 138.644531 31.691406 C 138.65625 31.734375 138.667969 31.78125 138.679688 31.828125 C 138.785156 32.1875 138.914062 32.550781 138.53125 32.863281 C 138.488281 32.902344 137.3125 32.941406 136.792969 32.976562 C 136.492188 32.996094 136.453125 32.890625 136.359375 32.886719 C 136.359375 32.886719 136.359375 32.886719 136.355469 32.886719 C 136.355469 32.886719 136.355469 32.886719 136.351562 32.886719 C 136.253906 32.890625 136.234375 32.890625 136.082031 32.855469 C 135.988281 32.835938 135.742188 32.476562 135.398438 32.75 C 135.300781 32.832031 135.242188 32.933594 135.246094 32.996094 C 135.289062 33.847656 133.882812 32.878906 133.703125 32.828125 C 133.507812 32.769531 132.867188 32.519531 132.808594 32.515625 C 132.789062 32.511719 132.777344 32.410156 132.84375 32.34375 C 133.011719 32.171875 133.066406 32.105469 133.011719 32.011719 C 132.871094 31.777344 132.839844 31.636719 132.835938 31.632812 C 132.792969 31.578125 132.722656 31.546875 132.652344 31.550781 C 130.535156 31.683594 130.078125 31.746094 129.660156 31.945312 C 129.625 31.964844 129.546875 32 129.429688 31.949219 C 129.339844 31.90625 129.238281 31.902344 129.144531 31.9375 C 129.007812 31.847656 128.828125 31.855469 128.699219 31.957031 L 128.007812 32.519531 C 127.9375 32.578125 127.878906 32.644531 127.832031 32.722656 C 127.707031 32.917969 127.714844 33.066406 127.71875 33.136719 C 127.726562 33.359375 127.097656 33.765625 126.765625 33.726562 C 126.765625 33.726562 126.761719 33.726562 126.761719 33.726562 L 126.761719 33.722656 C 126.609375 33.785156 126.476562 33.839844 125.710938 34.910156 C 125.289062 35.496094 125.289062 35.496094 125.375 35.660156 C 125.417969 35.75 125.511719 35.925781 125.441406 36.414062 C 125.4375 36.445312 125.117188 37.535156 125.117188 37.535156 C 125.035156 37.808594 125.261719 38.335938 125.261719 38.335938 C 125.261719 38.335938 125.347656 38.5 125.359375 38.523438 C 125.421875 38.667969 125.511719 39.46875 125.746094 39.835938 C 125.785156 39.890625 127.015625 40.941406 127.195312 40.976562 C 127.730469 41.078125 128.878906 41.304688 128.90625 41.304688 C 129.515625 41.347656 130.011719 40.84375 130.601562 40.800781 C 130.738281 40.792969 131.019531 40.878906 131.09375 41.292969 C 131.144531 41.601562 131.617188 41.5 131.839844 41.4375 C 131.941406 41.40625 132.050781 41.414062 132.148438 41.453125 L 132.148438 41.457031 C 132.15625 41.523438 132.363281 41.582031 132.386719 41.613281 C 132.507812 41.796875 132.421875 42.769531 132.210938 42.9375 C 132.1875 42.953125 132.171875 42.976562 132.160156 43.003906 C 132.386719 43.472656 132.882812 43.707031 132.882812 43.707031 C 132.953125 43.78125 133.378906 44.515625 133.425781 44.839844 C 133.496094 45.335938 133.496094 45.242188 133.507812 45.261719 C 133.722656 45.617188 133.535156 45.785156 133.402344 45.855469 C 133.359375 45.875 132.964844 46.792969 132.96875 46.945312 C 132.96875 47.089844 133.199219 47.222656 133.28125 47.335938 L 133.804688 48.070312 C 133.816406 48.082031 133.824219 48.09375 133.835938 48.105469 C 134.015625 48.335938 133.734375 48.65625 133.898438 48.886719 C 133.953125 48.960938 134.082031 49.261719 134.148438 49.308594 C 134.253906 49.378906 134.699219 50.023438 134.570312 50.132812 C 134.554688 50.144531 134.554688 50.175781 134.5625 50.195312 C 134.601562 50.308594 135.140625 50.492188 135.339844 50.40625 C 135.636719 50.28125 136.253906 50.179688 136.507812 50.183594 C 136.859375 50.1875 138.539062 48.980469 138.40625 48.566406 C 138.402344 48.558594 138.402344 48.550781 138.402344 48.546875 L 138.40625 48.546875 C 138.601562 48.316406 139.171875 48.027344 139.15625 48 C 139.230469 47.835938 139.402344 47.019531 139.636719 46.847656 C 139.839844 46.699219 140.132812 46.484375 140.5625 46.175781 C 140.832031 45.976562 140.964844 45.84375 140.945312 45.003906 C 140.921875 44.230469 140.785156 43.632812 140.742188 43.5 C 140.675781 43.316406 140.695312 43.285156 140.769531 43.148438 C 140.980469 42.75 142.214844 40.972656 142.433594 40.765625 C 142.445312 40.757812 142.453125 40.75 142.460938 40.738281 C 142.863281 40.269531 143.09375 39.636719 143.238281 39.039062 C 143.269531 38.914062 143.316406 38.792969 143.355469 38.667969 C 143.367188 38.636719 143.378906 38.511719 143.390625 38.367188 C 143.398438 38.316406 143.402344 38.269531 142.773438 37.964844 C 142.746094 37.976562 142.71875 37.984375 142.691406 37.996094 C 142.273438 38.140625 141.785156 38.289062 141.730469 38.238281 C 141.652344 38.167969 141.601562 38.074219 141.582031 37.96875 C 141.558594 37.859375 141.5 37.753906 141.414062 37.675781 C 140.960938 37.25 140.070312 36.976562 139.859375 35.824219 C 139.828125 35.652344 138.5625 33.824219 138.304688 33.453125 C 138.273438 33.414062 138.265625 33.359375 138.277344 33.3125 C 138.277344 33.308594 138.277344 33.308594 138.277344 33.308594 C 138.328125 33.433594 138.523438 33.660156 138.644531 33.785156 C 138.675781 33.820312 138.722656 33.835938 138.765625 33.804688 C 138.808594 33.769531 138.777344 33.71875 138.789062 33.550781 C 138.792969 33.503906 138.863281 33.5 138.871094 33.546875 C 138.886719 33.648438 138.9375 33.746094 139.015625 33.820312 C 139.179688 33.980469 139.386719 34.285156 139.519531 34.492188 C 139.605469 34.625 139.71875 34.730469 139.851562 34.804688 C 140.042969 34.914062 140.101562 35.09375 140.238281 35.511719 C 140.398438 36.011719 140.984375 36.128906 141.199219 36.582031 C 141.382812 36.960938 141.824219 37.648438 141.871094 37.640625 C 142.222656 37.558594 142.558594 37.285156 142.660156 37.207031 C 142.695312 37.179688 142.730469 37.152344 142.761719 37.125 C 142.792969 37.101562 142.824219 37.074219 142.855469 37.050781 C 144.273438 36.621094 144.273438 36.621094 144.234375 35.984375 C 144.234375 35.957031 144.238281 35.929688 144.238281 35.902344 C 144.238281 35.703125 144.226562 35.445312 144.214844 35.113281 C 144.21875 35.085938 144.222656 35.0625 144.226562 35.035156 C 144.285156 34.625 144.3125 34.105469 144.371094 33.996094 C 144.355469 33.964844 144.328125 33.9375 144.300781 33.910156 C 144.269531 33.886719 144.234375 33.863281 144.191406 33.839844 C 144.050781 33.773438 143.882812 33.878906 143.75 33.765625 C 143.675781 33.703125 143.582031 33.679688 143.488281 33.699219 C 143.398438 33.714844 143.316406 33.777344 143.277344 33.863281 C 143.277344 33.863281 143.273438 33.863281 143.273438 33.867188 C 143.238281 33.9375 143.167969 33.988281 143.089844 34 C 142.957031 34.019531 142.972656 34.042969 142.871094 34.117188 C 142.695312 34.027344 142.574219 34.003906 142.113281 33.375 C 142.09375 33.347656 142.074219 33.316406 142.054688 33.289062 C 141.824219 32.945312 143.046875 32.945312 142.902344 33.230469 C 142.933594 33.234375 142.96875 33.242188 143 33.25 C 143.035156 33.253906 143.066406 33.257812 143.097656 33.253906 C 143.15625 33.253906 143.207031 33.238281 143.226562 33.203125 C 144.242188 32.953125 144.273438 32.945312 145.621094 32.730469 C 145.660156 32.726562 145.699219 32.71875 145.742188 32.714844 C 145.792969 32.726562 145.84375 32.738281 145.890625 32.75 C 144.53125 28.582031 141.394531 25.21875 137.378906 23.550781 Z M 137.378906 23.550781 " fill-opacity="1" fill-rule="nonzero"/><g clip-path="url(#c60a65ccb3)"><path fill="#000000" d="M 137.75 23.710938 C 141.402344 26.445312 143.765625 30.808594 143.765625 35.722656 C 143.765625 44.007812 137.050781 50.722656 128.765625 50.722656 C 126.585938 50.722656 124.515625 50.257812 122.644531 49.421875 C 125.148438 51.296875 128.261719 52.410156 131.628906 52.410156 C 139.914062 52.410156 146.628906 45.691406 146.628906 37.410156 C 146.628906 31.304688 142.984375 26.050781 137.75 23.710938 Z M 137.75 23.710938 " fill-opacity="0.1" fill-rule="nonzero"/></g><g clip-path="url(#20a722f8a8)"><path fill="#303842" d="M 135.785156 24.878906 C 136.503906 26.578125 137.039062 28.335938 137.386719 30.136719 C 136.214844 29.984375 135.019531 29.90625 133.804688 29.90625 C 129.410156 29.90625 125.253906 30.925781 121.558594 32.738281 C 120.96875 32.671875 120.371094 32.640625 119.761719 32.640625 C 118.941406 32.640625 118.136719 32.699219 117.347656 32.816406 C 117.179688 33.339844 117.039062 33.878906 116.925781 34.425781 C 117.597656 34.300781 118.277344 34.21875 118.964844 34.183594 C 118.191406 34.671875 117.441406 35.199219 116.722656 35.761719 C 116.660156 36.300781 116.628906 36.851562 116.628906 37.410156 C 116.628906 37.421875 116.632812 37.433594 116.632812 37.445312 C 118.09375 36.210938 119.675781 35.140625 121.363281 34.246094 C 124.792969 34.605469 127.976562 36.113281 130.449219 38.589844 C 132.925781 41.0625 134.433594 44.246094 134.792969 47.675781 C 133.898438 49.363281 132.828125 50.945312 131.59375 52.40625 C 131.605469 52.40625 131.617188 52.410156 131.628906 52.410156 C 132.1875 52.410156 132.738281 52.378906 133.277344 52.316406 C 133.839844 51.597656 134.367188 50.847656 134.855469 50.074219 C 134.820312 50.761719 134.738281 51.441406 134.613281 52.113281 C 135.160156 52 135.699219 51.859375 136.222656 51.691406 C 136.339844 50.902344 136.398438 50.097656 136.398438 49.277344 C 136.398438 48.667969 136.367188 48.070312 136.300781 47.480469 C 138.113281 43.785156 139.132812 39.628906 139.132812 35.234375 C 139.132812 34.019531 139.054688 32.824219 138.902344 31.652344 C 140.703125 32 142.460938 32.535156 144.160156 33.253906 C 144.890625 33.566406 145.605469 33.90625 146.300781 34.277344 C 146.183594 33.71875 146.035156 33.175781 145.855469 32.640625 C 143.621094 31.566406 141.21875 30.785156 138.703125 30.335938 C 138.253906 27.820312 137.472656 25.417969 136.398438 23.183594 C 135.863281 23.003906 135.320312 22.855469 134.761719 22.738281 C 135.132812 23.433594 135.472656 24.148438 135.785156 24.878906 Z M 137.605469 31.433594 C 137.785156 32.683594 137.875 33.953125 137.875 35.234375 C 137.875 38.714844 137.214844 42.089844 135.914062 45.273438 C 135.175781 42.289062 133.632812 39.621094 131.527344 37.511719 C 129.417969 35.40625 126.75 33.863281 123.765625 33.125 C 126.949219 31.824219 130.324219 31.164062 133.804688 31.164062 C 135.085938 31.164062 136.355469 31.253906 137.605469 31.433594 Z M 137.605469 31.433594 " fill-opacity="1" fill-rule="nonzero"/></g><path fill="#d94452" d="M 139.839844 32.566406 C 138.910156 33.492188 137.402344 33.492188 136.472656 32.566406 C 135.546875 31.636719 135.546875 30.128906 136.472656 29.199219 C 137.402344 28.269531 138.910156 28.269531 139.839844 29.199219 C 140.769531 30.128906 140.769531 31.636719 139.839844 32.566406 Z M 139.839844 32.566406 " fill-opacity="1" fill-rule="nonzero"/><path fill="#d94452" d="M 137.332031 48.324219 C 136.402344 49.253906 134.898438 49.253906 133.96875 48.324219 C 133.039062 47.394531 133.039062 45.886719 133.96875 44.960938 C 134.898438 44.03125 136.402344 44.03125 137.332031 44.960938 C 138.261719 45.890625 138.261719 47.394531 137.332031 48.324219 Z M 137.332031 48.324219 " fill-opacity="1" fill-rule="nonzero"/><path fill="#d94452" d="M 123.03125 35.0625 C 122.101562 35.992188 120.597656 35.992188 119.667969 35.0625 C 118.738281 34.136719 118.738281 32.628906 119.667969 31.699219 C 120.597656 30.769531 122.101562 30.769531 123.03125 31.699219 C 123.960938 32.628906 123.960938 34.136719 123.03125 35.0625 Z M 123.03125 35.0625 " fill-opacity="1" fill-rule="nonzero"/><g fill="#000000" fill-opacity="1"><g transform="translate(0.000003, 44.759271)"><g><path d="M 12.984375 -4.75 L 12.984375 0 L 0.859375 0 L 0.859375 -0.84375 L 2.03125 -0.859375 L 2.03125 -15.15625 L 0.859375 -15.1875 L 0.859375 -16.015625 L 12.5 -16.015625 L 12.5 -11.375 L 11.578125 -11.40625 L 11.515625 -12.59375 C 9.753906 -13.695312 7.914062 -14.625 6 -15.375 L 6.046875 -8.71875 L 10.515625 -8.71875 L 10.515625 -7.84375 L 6.046875 -7.84375 L 6.09375 -0.671875 C 8.132812 -1.453125 10.101562 -2.40625 12 -3.53125 L 12.046875 -4.734375 Z M 12.984375 -4.75 "/></g></g></g><g fill="#000000" fill-opacity="1"><g transform="translate(13.582535, 44.759271)"><g><path d="M 10.234375 -1.25 L 6.71875 0.40625 C 6.289062 0.101562 5.992188 -0.3125 5.828125 -0.84375 C 5.253906 -0.488281 4.675781 -0.203125 4.09375 0.015625 C 3.519531 0.242188 3.015625 0.359375 2.578125 0.359375 C 1.929688 0.359375 1.398438 0.128906 0.984375 -0.328125 C 0.566406 -0.796875 0.359375 -1.390625 0.359375 -2.109375 C 0.359375 -2.421875 0.394531 -2.765625 0.46875 -3.140625 C 0.539062 -3.515625 0.628906 -3.816406 0.734375 -4.046875 L 5.8125 -4.859375 L 5.859375 -5.546875 C 5.890625 -6.265625 5.738281 -6.828125 5.40625 -7.234375 C 5.070312 -7.640625 4.53125 -7.84375 3.78125 -7.84375 C 3.445312 -7.84375 3.09375 -7.804688 2.71875 -7.734375 C 2.351562 -7.660156 2.046875 -7.566406 1.796875 -7.453125 L 1.40625 -6.640625 L 0.765625 -6.890625 L 1.859375 -10.328125 C 3.085938 -10.847656 4.253906 -11.109375 5.359375 -11.109375 C 6.484375 -11.109375 7.40625 -10.8125 8.125 -10.21875 C 8.84375 -9.625 9.203125 -8.6875 9.203125 -7.40625 L 9.1875 -6.9375 L 8.9375 -3.703125 L 8.890625 -2.84375 C 8.890625 -2.5625 8.910156 -2.332031 8.953125 -2.15625 C 9.003906 -1.988281 9.085938 -1.820312 9.203125 -1.65625 L 9.9375 -1.9375 Z M 4.8125 -1.359375 C 5.0625 -1.359375 5.351562 -1.457031 5.6875 -1.65625 L 5.671875 -2.15625 L 5.6875 -2.671875 L 5.765625 -4.046875 L 3.921875 -3.609375 C 3.859375 -3.398438 3.828125 -3.117188 3.828125 -2.765625 C 3.828125 -2.296875 3.921875 -1.941406 4.109375 -1.703125 C 4.304688 -1.472656 4.539062 -1.359375 4.8125 -1.359375 Z M 4.8125 -1.359375 "/></g></g></g><g fill="#000000" fill-opacity="1"><g transform="translate(23.81726, 44.759271)"><g><path d="M 5.0625 -7.484375 L 4.96875 -0.765625 L 7.09375 -0.6875 L 7.09375 0 L 0.71875 0 L 0.71875 -0.6875 L 1.609375 -0.765625 L 1.53125 -9.328125 L 0.625 -9.109375 L 0.375 -9.828125 L 4.15625 -11 L 4.96875 -8.4375 C 5.5 -9.507812 6.070312 -10.335938 6.6875 -10.921875 C 7.039062 -11.046875 7.460938 -11.109375 7.953125 -11.109375 C 8.628906 -11.109375 9.257812 -10.988281 9.84375 -10.75 L 9.078125 -7.65625 C 8.617188 -7.75 8.03125 -7.832031 7.3125 -7.90625 C 6.59375 -7.988281 6.003906 -8.046875 5.546875 -8.078125 Z M 5.0625 -7.484375 "/></g></g></g><g fill="#000000" fill-opacity="1"><g transform="translate(33.191119, 44.759271)"><g><path d="M 8.078125 -1.890625 L 5.15625 0.21875 C 3.976562 0.21875 3.125 -0.0703125 2.59375 -0.65625 C 2.0625 -1.238281 1.796875 -2.175781 1.796875 -3.46875 L 1.796875 -9.828125 L 0.1875 -9.828125 L 0.1875 -10.59375 C 0.851562 -10.957031 1.582031 -11.476562 2.375 -12.15625 C 3.164062 -12.832031 3.890625 -13.546875 4.546875 -14.296875 L 5.328125 -14.0625 L 5.21875 -10.75 L 8.015625 -10.75 L 8.015625 -9.75 L 5.15625 -9.796875 L 5.15625 -4.296875 C 5.15625 -3.535156 5.300781 -2.976562 5.59375 -2.625 C 5.894531 -2.28125 6.296875 -2.109375 6.796875 -2.109375 L 7.671875 -2.609375 Z M 8.078125 -1.890625 "/></g></g></g><g fill="#000000" fill-opacity="1"><g transform="translate(41.273679, 44.759271)"><g><path d="M 12.046875 -0.6875 L 12.046875 0 L 6.9375 0 L 6.9375 -0.6875 L 7.8125 -0.765625 L 7.8125 -5.8125 C 7.8125 -6.507812 7.613281 -7.050781 7.21875 -7.4375 C 6.832031 -7.820312 6.300781 -8.019531 5.625 -8.03125 L 4.828125 -7.25 L 4.78125 -0.765625 L 5.671875 -0.6875 L 5.671875 0 L 0.53125 0 L 0.53125 -0.6875 L 1.40625 -0.765625 L 1.296875 -15.078125 L 0.375 -14.890625 L 0.140625 -15.59375 L 4.5625 -16.921875 L 4.90625 -16.359375 L 4.828125 -8.390625 L 6.765625 -11.171875 C 8.273438 -11.171875 9.390625 -10.8125 10.109375 -10.09375 C 10.828125 -9.375 11.1875 -8.265625 11.1875 -6.765625 L 11.1875 -0.765625 Z M 12.046875 -0.6875 "/></g></g></g><g fill="#000000" fill-opacity="1"><g transform="translate(53.517087, 44.759271)"><g><path d="M 11.71875 -10.75 L 11.71875 -10 L 11.015625 -9.96875 L 7.984375 -2.921875 C 7.148438 -0.953125 6.289062 0.84375 5.40625 2.46875 C 4.53125 4.09375 3.734375 5.378906 3.015625 6.328125 L 0.1875 3.65625 C 2.164062 2.519531 3.9375 1.273438 5.5 -0.078125 L 4.1875 0 L 0.5 -9.96875 L -0.1875 -10 L -0.1875 -10.75 L 5.46875 -10.75 L 5.46875 -10 L 4.46875 -9.96875 L 6.640625 -2.65625 L 8.609375 -9.96875 L 7.609375 -10 L 7.609375 -10.75 Z M 11.71875 -10.75 "/></g></g></g><g fill="#000000" fill-opacity="1"><g transform="translate(64.875714, 44.759271)"><g><path d="M 5.1875 -13.484375 C 5.1875 -12.972656 5.328125 -12.5 5.609375 -12.0625 C 5.898438 -11.632812 6.257812 -11.253906 6.6875 -10.921875 C 7.125 -10.585938 7.71875 -10.175781 8.46875 -9.6875 C 9.34375 -9.113281 10.039062 -8.601562 10.5625 -8.15625 C 11.09375 -7.71875 11.546875 -7.191406 11.921875 -6.578125 C 12.296875 -5.972656 12.484375 -5.285156 12.484375 -4.515625 C 12.484375 -3.671875 12.25 -2.878906 11.78125 -2.140625 C 11.320312 -1.398438 10.628906 -0.796875 9.703125 -0.328125 C 8.773438 0.128906 7.660156 0.359375 6.359375 0.359375 C 3.554688 0.359375 1.5625 -0.753906 0.375 -2.984375 L 3.078125 -5.0625 C 3.847656 -3.488281 4.710938 -1.960938 5.671875 -0.484375 L 5.6875 -0.484375 C 6.15625 -0.484375 6.585938 -0.601562 6.984375 -0.84375 C 7.378906 -1.09375 7.695312 -1.414062 7.9375 -1.8125 C 8.175781 -2.21875 8.296875 -2.640625 8.296875 -3.078125 C 8.296875 -3.554688 8.15625 -4 7.875 -4.40625 C 7.59375 -4.8125 7.242188 -5.171875 6.828125 -5.484375 C 6.421875 -5.796875 5.859375 -6.175781 5.140625 -6.625 C 4.273438 -7.164062 3.578125 -7.640625 3.046875 -8.046875 C 2.523438 -8.460938 2.078125 -8.96875 1.703125 -9.5625 C 1.328125 -10.164062 1.140625 -10.859375 1.140625 -11.640625 C 1.140625 -12.515625 1.390625 -13.3125 1.890625 -14.03125 C 2.398438 -14.757812 3.117188 -15.332031 4.046875 -15.75 C 4.984375 -16.164062 6.082031 -16.375 7.34375 -16.375 C 8.570312 -16.375 9.578125 -16.175781 10.359375 -15.78125 C 11.148438 -15.394531 11.863281 -14.84375 12.5 -14.125 L 10 -11.59375 C 9.144531 -13 8.289062 -14.3125 7.4375 -15.53125 C 6.71875 -15.53125 6.160156 -15.335938 5.765625 -14.953125 C 5.378906 -14.566406 5.1875 -14.078125 5.1875 -13.484375 Z M 5.1875 -13.484375 "/></g></g></g><g fill="#000000" fill-opacity="1"><g transform="translate(78.051728, 44.759271)"><g><path d="M 7.03125 -2.390625 C 8.019531 -2.390625 8.984375 -2.75 9.921875 -3.46875 L 10.296875 -3.03125 C 9.710938 -2.007812 8.976562 -1.1875 8.09375 -0.5625 C 7.207031 0.0507812 6.253906 0.359375 5.234375 0.359375 C 3.796875 0.359375 2.648438 -0.117188 1.796875 -1.078125 C 0.953125 -2.046875 0.53125 -3.351562 0.53125 -5 C 0.53125 -5.96875 0.726562 -6.929688 1.125 -7.890625 C 1.519531 -8.847656 2.03125 -9.644531 2.65625 -10.28125 C 3.195312 -10.550781 3.757812 -10.753906 4.34375 -10.890625 C 4.9375 -11.035156 5.503906 -11.109375 6.046875 -11.109375 C 6.984375 -11.109375 7.816406 -10.851562 8.546875 -10.34375 C 9.285156 -9.84375 9.878906 -9.101562 10.328125 -8.125 L 7.578125 -6.53125 C 7.328125 -7.25 6.984375 -7.972656 6.546875 -8.703125 C 6.117188 -9.429688 5.742188 -9.929688 5.421875 -10.203125 C 5.015625 -9.804688 4.660156 -9.226562 4.359375 -8.46875 C 4.066406 -7.71875 3.921875 -6.941406 3.921875 -6.140625 C 3.921875 -4.910156 4.191406 -3.976562 4.734375 -3.34375 C 5.273438 -2.707031 6.039062 -2.390625 7.03125 -2.390625 Z M 7.03125 -2.390625 "/></g></g><g transform="translate(88.429931, 44.759271)"><g><path d="M 10.234375 -1.25 L 6.71875 0.40625 C 6.289062 0.101562 5.992188 -0.3125 5.828125 -0.84375 C 5.253906 -0.488281 4.675781 -0.203125 4.09375 0.015625 C 3.519531 0.242188 3.015625 0.359375 2.578125 0.359375 C 1.929688 0.359375 1.398438 0.128906 0.984375 -0.328125 C 0.566406 -0.796875 0.359375 -1.390625 0.359375 -2.109375 C 0.359375 -2.421875 0.394531 -2.765625 0.46875 -3.140625 C 0.539062 -3.515625 0.628906 -3.816406 0.734375 -4.046875 L 5.8125 -4.859375 L 5.859375 -5.546875 C 5.890625 -6.265625 5.738281 -6.828125 5.40625 -7.234375 C 5.070312 -7.640625 4.53125 -7.84375 3.78125 -7.84375 C 3.445312 -7.84375 3.09375 -7.804688 2.71875 -7.734375 C 2.351562 -7.660156 2.046875 -7.566406 1.796875 -7.453125 L 1.40625 -6.640625 L 0.765625 -6.890625 L 1.859375 -10.328125 C 3.085938 -10.847656 4.253906 -11.109375 5.359375 -11.109375 C 6.484375 -11.109375 7.40625 -10.8125 8.125 -10.21875 C 8.84375 -9.625 9.203125 -8.6875 9.203125 -7.40625 L 9.1875 -6.9375 L 8.9375 -3.703125 L 8.890625 -2.84375 C 8.890625 -2.5625 8.910156 -2.332031 8.953125 -2.15625 C 9.003906 -1.988281 9.085938 -1.820312 9.203125 -1.65625 L 9.9375 -1.9375 Z M 4.8125 -1.359375 C 5.0625 -1.359375 5.351562 -1.457031 5.6875 -1.65625 L 5.671875 -2.15625 L 5.6875 -2.671875 L 5.765625 -4.046875 L 3.921875 -3.609375 C 3.859375 -3.398438 3.828125 -3.117188 3.828125 -2.765625 C 3.828125 -2.296875 3.921875 -1.941406 4.109375 -1.703125 C 4.304688 -1.472656 4.539062 -1.359375 4.8125 -1.359375 Z M 4.8125 -1.359375 "/></g></g><g transform="translate(98.664655, 44.759271)"><g><path d="M 12.265625 -0.6875 L 12.265625 0 L 7.140625 0 L 7.140625 -0.6875 L 8.03125 -0.765625 L 8.03125 -5.8125 C 8.03125 -6.507812 7.832031 -7.050781 7.4375 -7.4375 C 7.050781 -7.820312 6.515625 -8.019531 5.828125 -8.03125 L 5.0625 -7.25 L 4.96875 -0.765625 L 5.859375 -0.6875 L 5.859375 0 L 0.71875 0 L 0.71875 -0.6875 L 1.609375 -0.765625 L 1.53125 -9.328125 L 0.625 -9.109375 L 0.375 -9.828125 L 4.15625 -11 L 5 -8.3125 L 6.984375 -11.171875 C 8.492188 -11.171875 9.609375 -10.8125 10.328125 -10.09375 C 11.046875 -9.375 11.40625 -8.265625 11.40625 -6.765625 L 11.40625 -0.765625 Z M 12.265625 -0.6875 "/></g></g></g></svg>